<?xml version="1.0" standalone="no"?>
<!--<!DOCTYPE svg PUBLIC "-//W3C//DTD SVG 20010904//EN"-->
<!-- "http://www.w3.org/TR/2001/REC-SVG-20010904/DTD/svg10.dtd" >-->
<svg version="1.0" xmlns="http://www.w3.org/2000/svg"
 width="2854.000000pt" height="5638.000000pt" viewBox="0 0 2854.000000 5638.000000"
 preserveAspectRatio="xMidYMid meet">

<g transform="translate(0.000000,5638.000000) scale(0.100000,-0.100000)"
fill="#379777" stroke="none">
<path d="M220 55866 l0 -304 63 14 c84 20 209 82 282 141 117 95 216 250 249
391 l14 62 -304 0 -304 0 0 -304z"/>
<path d="M1040 56147 c0 -86 -80 -289 -159 -406 -133 -196 -388 -357 -611
-387 l-50 -7 0 -6232 c0 -3427 -3 -9513 -7 -13523 l-6 -7292 5070 0 5070 0 6
128 c17 336 87 693 201 1027 294 865 867 1584 1657 2080 135 85 420 229 579
293 532 214 1053 302 1655 280 737 -26 1459 -274 2087 -715 319 -223 631 -529
879 -860 450 -600 728 -1365 766 -2105 l6 -128 5067 0 5067 0 6 7292 c4 4010
7 10095 7 13522 l0 6231 -83 16 c-359 70 -656 367 -726 726 l-16 83 -2362 0
-2363 0 0 -3435 0 -3435 -2712 -1 -2713 0 -60 -77 c-91 -117 -414 -436 -555
-548 -607 -484 -1257 -755 -2040 -850 -200 -25 -636 -25 -845 0 -817 95 -1540
410 -2150 937 -122 105 -368 358 -450 462 l-60 76 -2712 0 -2713 1 0 3435 0
3435 -2365 0 -2365 0 0 -23z"/>
<path d="M5980 52840 l0 -3330 8295 0 8295 0 0 3330 0 3330 -2185 0 -2185 0 0
-1145 0 -1145 -3925 0 -3925 0 0 1145 0 1145 -2185 0 -2185 0 0 -3330z m8434
-834 c103 -50 166 -146 174 -262 9 -136 -54 -246 -173 -305 -57 -28 -77 -32
-140 -32 -134 0 -248 78 -296 203 -21 55 -25 144 -9 202 14 49 66 125 112 161
90 72 225 85 332 33z"/>
<path d="M10570 55135 l0 -1035 3705 0 3705 0 0 1035 0 1035 -3705 0 -3705 0
0 -1035z"/>
<path d="M27736 56108 c20 -85 82 -210 141 -283 95 -117 250 -216 391 -249
l62 -14 0 304 0 304 -304 0 -304 0 14 -62z"/>
<path d="M11480 49294 c0 -13 181 -203 281 -294 587 -534 1260 -846 2059 -956
160 -21 583 -30 762 -15 765 65 1474 358 2075 856 109 90 413 389 413 406 0 5
-1141 9 -2795 9 -1537 0 -2795 -3 -2795 -6z"/>
<path d="M13970 31889 c-277 -22 -629 -95 -892 -185 -555 -190 -1010 -474
-1429 -893 -414 -414 -699 -868 -888 -1414 -108 -313 -167 -619 -196 -1009
l-7 -88 1705 0 1705 0 6 26 c11 44 123 148 180 167 63 22 159 22 222 0 57 -19
169 -123 180 -167 l6 -26 1705 0 1705 0 -7 88 c-21 281 -49 471 -105 699 -127
515 -364 995 -701 1420 -130 163 -418 451 -579 579 -281 222 -565 392 -876
523 -542 227 -1153 326 -1734 280z"/>
<path d="M210 14563 l0 -13528 83 -16 c359 -70 656 -367 726 -726 l16 -83
2363 0 2362 0 0 3435 0 3435 2713 1 2712 0 60 77 c91 117 414 436 555 548 607
484 1257 755 2040 850 200 25 636 25 845 0 817 -95 1540 -410 2150 -937 122
-105 368 -358 450 -462 l60 -76 2713 0 2712 -1 0 -3435 0 -3435 2365 0 2365 0
0 23 c0 86 80 289 159 406 133 196 388 357 611 387 l50 7 0 13528 0 13529
-5068 0 -5069 0 -6 -127 c-17 -337 -87 -694 -201 -1028 -294 -865 -867 -1584
-1657 -2080 -135 -85 -420 -229 -579 -293 -327 -132 -649 -214 -1035 -264
-136 -18 -744 -18 -880 0 -509 66 -908 187 -1335 403 -542 275 -1000 661
-1371 1156 -450 600 -728 1365 -766 2106 l-6 127 -5069 0 -5068 0 0 -13527z"/>
<path d="M10565 28003 c29 -391 88 -697 196 -1010 109 -315 226 -551 415 -840
138 -210 276 -377 473 -574 187 -187 350 -322 546 -455 1249 -844 2891 -844
4140 0 196 133 359 268 546 455 414 414 699 868 888 1414 108 313 167 619 196
1010 l7 87 -1705 0 -1705 0 -6 -26 c-4 -15 -35 -55 -69 -89 -72 -71 -127 -95
-222 -95 -95 0 -150 24 -222 95 -34 34 -65 74 -69 89 l-6 26 -1705 0 -1705 0
7 -87z"/>
<path d="M13920 8349 c-752 -75 -1449 -367 -2037 -854 -109 -90 -413 -389
-413 -406 0 -5 1141 -9 2795 -9 1537 0 2795 3 2795 6 0 13 -181 203 -281 294
-587 534 -1257 844 -2059 956 -137 19 -655 27 -800 13z"/>
<path d="M5970 3540 l0 -3330 2185 0 2185 0 0 1145 0 1145 3925 0 3925 0 0
-1145 0 -1145 2185 0 2185 0 0 3330 0 3330 -8295 0 -8295 0 0 -3330z m8438
1399 c116 -56 179 -168 170 -303 -8 -117 -71 -211 -176 -263 -48 -24 -70 -28
-137 -28 -67 0 -89 4 -137 28 -105 52 -168 146 -176 263 -8 127 51 240 156
297 100 54 195 56 300 6z"/>
<path d="M10560 1245 l0 -1035 3705 0 3705 0 0 1035 0 1035 -3705 0 -3705 0 0
-1035z"/>
<path d="M210 514 l0 -304 304 0 304 0 -14 62 c-33 141 -132 296 -249 391 -73
59 -198 121 -282 141 l-63 14 0 -304z"/>
<path d="M28255 804 c-83 -20 -209 -83 -280 -141 -117 -95 -216 -250 -249
-391 l-14 -62 304 0 304 0 0 305 c0 168 -1 305 -2 304 -2 0 -30 -7 -63 -15z"/>
</g>
</svg>
